<svg width="104" height="53" viewBox="0 0 104 53" fill="none" xmlns="http://www.w3.org/2000/svg">
<path d="M48.1 35.5501H40.3V14.7501C40.3 6.85248 46.7024 0.45015 54.6 0.45015H66.3V8.25015H44.1262C43.0688 8.25015 42.4538 9.44533 43.0683 10.3058L47.6158 16.6721C47.9307 17.1131 48.1 17.6415 48.1 18.1834V35.5501Z" fill="black"/>
<path d="M89.6997 0.45015C97.5973 0.45015 103.999 6.85237 104 14.75V21.25C104 29.1476 97.5974 35.5498 89.6997 35.5498H83.1997C75.3021 35.5496 68.8999 29.1476 68.8999 21.25V14.75C68.9 6.85244 75.3022 0.450255 83.1997 0.45015H89.6997ZM102.383 13.0175C100.629 8.39015 92.0734 6.86954 83.2739 9.62105C74.4743 12.3728 68.7629 18.3548 70.5171 22.9824C72.2714 27.61 80.8267 29.1306 89.6265 26.3789C98.4262 23.6271 104.138 17.6451 102.383 13.0175Z" fill="black"/>
<path d="M20.7998 0.4501C28.6974 0.4501 35.0995 6.85232 35.0996 14.7499V38.1503C35.0995 46.0479 28.6974 52.4501 20.7998 52.4501H6.5V44.6503H29.4688C30.4972 44.6503 31.1184 43.5125 30.5625 42.6474L26 35.5497H14.2998C6.40222 35.5496 0 29.1475 0 21.2499V14.7499C0.000109715 6.85239 6.40229 0.450205 14.2998 0.4501H20.7998ZM26 22.5507C26 11.5007 19.0465 -0.388981 12.5674 2.06729C7.94 3.82188 6.41923 12.3771 9.1709 21.1767C11.5894 28.9107 16.5034 34.259 20.7998 34.2499C21.3915 34.2486 25.9972 34.2499 26 34.2499V22.5507Z" fill="black"/>
</svg>
