<svg width="414" height="182" viewBox="0 0 414 182" fill="none" xmlns="http://www.w3.org/2000/svg">
<path d="M26.05 195.49C16.15 195.49 6.88 193.96 -1.76 190.9C-10.22 187.66 -17.69 182.44 -24.17 175.24C-30.47 167.86 -35.42 157.87 -39.02 145.27C-42.44 132.67 -44.15 116.92 -44.15 98.02V92.62C-44.15 75.16 -42.44 60.58 -39.02 48.88C-35.42 37 -30.47 27.55 -24.17 20.53C-17.69 13.33 -10.22 8.20001 -1.76 5.14002C6.88 2.08001 16.15 0.550013 26.05 0.550013C35.95 0.550013 45.13 2.08001 53.59 5.14002C62.23 8.20001 69.7 13.33 76 20.53C82.48 27.55 87.43 37 90.85 48.88C94.45 60.58 96.25 75.16 96.25 92.62V98.02C96.25 116.92 94.45 132.67 90.85 145.27C87.43 157.87 82.48 167.86 76 175.24C69.7 182.44 62.23 187.66 53.59 190.9C45.13 193.96 35.95 195.49 26.05 195.49ZM26.05 167.41C31.09 167.41 35.86 166.42 40.36 164.44C44.86 162.46 48.82 158.95 52.24 153.91C55.84 148.69 58.63 141.58 60.61 132.58C62.77 123.58 63.85 112.06 63.85 98.02V92.62C63.85 75.7 62.05 62.65 58.45 53.47C55.03 44.11 50.44 37.63 44.68 34.03C38.92 30.43 32.71 28.63 26.05 28.63C19.39 28.63 13.18 30.43 7.42 34.03C1.66 37.63 -3.02 44.11 -6.62 53.47C-10.04 62.65 -11.75 75.7 -11.75 92.62V98.02C-11.75 112.06 -10.76 123.58 -8.78 132.58C-6.62 141.58 -3.83 148.69 -0.409998 153.91C3.19 158.95 7.24001 162.46 11.74 164.44C16.24 166.42 21.01 167.41 26.05 167.41ZM185.318 195.49C175.418 195.49 166.148 193.96 157.508 190.9C149.048 187.66 141.578 182.44 135.098 175.24C128.798 167.86 123.848 157.87 120.248 145.27C116.828 132.67 115.118 116.92 115.118 98.02V92.62C115.118 75.16 116.828 60.58 120.248 48.88C123.848 37 128.798 27.55 135.098 20.53C141.578 13.33 149.048 8.20001 157.508 5.14002C166.148 2.08001 175.418 0.550013 185.318 0.550013C195.218 0.550013 204.398 2.08001 212.858 5.14002C221.498 8.20001 228.968 13.33 235.268 20.53C241.748 27.55 246.698 37 250.118 48.88C253.718 60.58 255.518 75.16 255.518 92.62V98.02C255.518 116.92 253.718 132.67 250.118 145.27C246.698 157.87 241.748 167.86 235.268 175.24C228.968 182.44 221.498 187.66 212.858 190.9C204.398 193.96 195.218 195.49 185.318 195.49ZM185.318 167.41C190.358 167.41 195.128 166.42 199.628 164.44C204.128 162.46 208.088 158.95 211.508 153.91C215.108 148.69 217.898 141.58 219.878 132.58C222.038 123.58 223.118 112.06 223.118 98.02V92.62C223.118 75.7 221.318 62.65 217.718 53.47C214.298 44.11 209.708 37.63 203.948 34.03C198.188 30.43 191.978 28.63 185.318 28.63C178.658 28.63 172.448 30.43 166.688 34.03C160.928 37.63 156.248 44.11 152.648 53.47C149.228 62.65 147.518 75.7 147.518 92.62V98.02C147.518 112.06 148.508 123.58 150.488 132.58C152.648 141.58 155.438 148.69 158.858 153.91C162.458 158.95 166.508 162.46 171.008 164.44C175.508 166.42 180.278 167.41 185.318 167.41ZM358.087 192.52V149.86H264.937V125.83L356.737 3.52001H390.487V121.78H413.437V149.86H390.487V192.52H358.087ZM297.337 121.78H358.087V40.78L297.337 121.78Z" fill="#E9E8E4"/>
</svg>
