<svg width="32" height="33" viewBox="0 0 32 33" fill="none" xmlns="http://www.w3.org/2000/svg">
<path d="M4.5103 15.3524C9.30392 13.329 14.1106 11.3367 18.9299 9.37572C25.7956 6.62961 26.7511 6.22878 27.6793 6.21478C28.0781 6.22736 28.4618 6.37002 28.7725 6.62114C29.161 6.9527 29.2792 7.1627 29.3122 7.34764C29.3427 7.53295 29.3398 8.11024 29.3067 8.43923C28.9348 12.1996 27.5222 20.8841 26.7041 25.1005C26.3571 26.8825 25.6741 27.4793 25.0132 27.5375C23.5785 27.6646 22.488 26.6257 21.0974 25.747C18.9218 24.3736 18.1948 23.8682 16.0853 22.5283C13.6423 20.9809 14.6474 20.442 16.0383 19.052C16.4018 18.6902 22.4329 13.167 22.5236 12.6638C22.6007 12.2217 22.6286 12.1638 22.4303 11.9649C22.2291 11.766 21.9897 11.7906 21.8355 11.8238C21.6152 11.871 18.2939 13.979 11.8662 18.1516C10.8803 18.8062 9.98806 19.1242 9.18648 19.1076C8.30522 19.0881 6.60623 18.6268 5.34492 18.2315C3.79428 17.7452 2.56345 17.491 2.67361 16.6676C2.72869 16.2392 3.33969 15.8 4.5103 15.3524Z" fill="white"/>
</svg>
